<svg width="138" height="138" viewBox="0 0 138 138" fill="none" xmlns="http://www.w3.org/2000/svg">
<path d="M39.9545 78.9467H98.37C119.991 78.9467 137.524 61.413 137.524 39.7924C137.524 18.1719 119.991 0.638184 98.37 0.638184H39.9545C18.334 0.638184 0.800293 18.1719 0.800293 39.7924C0.800293 61.413 18.334 78.9467 39.9545 78.9467Z" fill="#086845"/>
<path d="M101.799 137.233H110.205C110.205 116.36 94.2443 99.2134 73.8743 97.3182V53.9224H66.1388V97.3311C45.8591 99.3294 30.0015 116.425 30.0015 137.233H38.4073C38.4073 121.066 50.5003 107.735 66.1388 105.789V114.439C55.2061 116.283 46.8776 125.772 46.8776 137.233H55.3221C55.3221 129.072 61.9359 122.446 70.1097 122.446C78.2835 122.446 84.8973 129.059 84.8973 137.233H93.1614C93.1614 125.772 84.8199 116.27 73.8743 114.439V105.763C89.603 107.619 101.799 121.002 101.799 137.233Z" fill="#5EB697"/>
</svg>
