<svg width="138" height="138" viewBox="0 0 138 138" fill="none" xmlns="http://www.w3.org/2000/svg">
<path d="M0.84668 130.832L0.84668 137.248L137.925 137.248L137.925 130.832L0.84668 130.832Z" fill="#BF6928"/>
<path d="M66.1382 99.2124L72.6577 99.2124L72.6577 59.7847L66.1382 59.7847L66.1382 99.2124Z" fill="#F2CFB0"/>
<path d="M31.8653 99.2153L38.3848 99.2153L38.3848 50.5646L31.8653 50.5646L31.8653 99.2153Z" fill="#F2CFB0"/>
<path d="M35.1133 0.00927734V68.555L69.3926 34.2757L35.1133 0.00927734Z" fill="#BF6928"/>
<path d="M0.847168 34.2757L35.1136 68.555V0.00927734L0.847168 34.2757Z" fill="#EBAC7A"/>
<path d="M69.3926 0.00927734V68.555L103.659 34.2757L69.3926 0.00927734Z" fill="#BF6928"/>
<path d="M35.1133 34.2757L69.3926 68.555V0.00927734L35.1133 34.2757Z" fill="#EBAC7A"/>
<path d="M100.398 99.2124L106.917 99.2124L106.917 59.7847L100.398 59.7847L100.398 99.2124Z" fill="#F2CFB0"/>
<path d="M0.845703 112.956L0.845703 119.372L137.924 119.372L137.924 112.956L0.845703 112.956Z" fill="#BF6928"/>
<path d="M103.66 0.00927734V68.555L137.927 34.2757L103.66 0.00927734Z" fill="#BF6928"/>
<path d="M69.3926 34.2757L103.659 68.555V0.00927734L69.3926 34.2757Z" fill="#EBAC7A"/>
</svg>
