<svg width="140" height="132" viewBox="0 0 140 132" fill="none" xmlns="http://www.w3.org/2000/svg">
<path d="M108.825 69.5259C74.6734 69.5259 46.9805 97.2059 46.9805 131.371H139.045V69.5259H108.825Z" fill="#FEEAA8"/>
<path d="M31.1739 69.5269C65.3259 69.5269 93.0188 97.2069 93.0188 131.372H0.954102V69.5269H31.1739Z" fill="#F6A728"/>
<path d="M70.0062 52.3533C84.2895 52.3533 95.8684 40.7744 95.8684 26.4911C95.8684 12.2078 84.2895 0.628906 70.0062 0.628906C55.7229 0.628906 44.144 12.2078 44.144 26.4911C44.144 40.7744 55.7229 52.3533 70.0062 52.3533Z" fill="#F6A728"/>
<path d="M26.0306 115.191H16.271V57.2397L26.0306 115.191Z" fill="#FEEAA8"/>
<path d="M26.0308 115.191H35.7903L30.917 57.2397L26.0308 115.191Z" fill="#FEEAA8"/>
<path d="M35.79 115.191H45.5496V57.2397L35.79 115.191Z" fill="#FEEAA8"/>
<path d="M111.855 94.6665H105.963V59.6636L111.855 94.6665Z" fill="#F6A728"/>
<path d="M111.855 94.6665H117.747L114.807 59.6636L111.855 94.6665Z" fill="#F6A728"/>
<path d="M117.747 94.6665H123.652V59.6636L117.747 94.6665Z" fill="#F6A728"/>
</svg>
