<svg width="138" height="124" viewBox="0 0 138 124" fill="none" xmlns="http://www.w3.org/2000/svg">
<path d="M118.596 58.5328C122.38 58.5328 125.448 55.465 125.448 51.6807C125.448 47.8964 122.38 44.8286 118.596 44.8286C114.811 44.8286 111.744 47.8964 111.744 51.6807C111.744 55.465 114.811 58.5328 118.596 58.5328Z" fill="#1D1A3A"/>
<path d="M93.941 58.5328C97.7253 58.5328 100.793 55.465 100.793 51.6807C100.793 47.8964 97.7253 44.8286 93.941 44.8286C90.1567 44.8286 87.0889 47.8964 87.0889 51.6807C87.0889 55.465 90.1567 58.5328 93.941 58.5328Z" fill="#1D1A3A"/>
<path d="M69.273 58.5328C73.0573 58.5328 76.1251 55.465 76.1251 51.6807C76.1251 47.8964 73.0573 44.8286 69.273 44.8286C65.4887 44.8286 62.4209 47.8964 62.4209 51.6807C62.4209 55.465 65.4887 58.5328 69.273 58.5328Z" fill="#1D1A3A"/>
<path d="M44.6187 58.5328C48.403 58.5328 51.4708 55.465 51.4708 51.6807C51.4708 47.8964 48.403 44.8286 44.6187 44.8286C40.8344 44.8286 37.7666 47.8964 37.7666 51.6807C37.7666 55.465 40.8344 58.5328 44.6187 58.5328Z" fill="#1D1A3A"/>
<path d="M19.9512 58.5328C23.7356 58.5328 26.8034 55.465 26.8034 51.6807C26.8034 47.8964 23.7356 44.8286 19.9512 44.8286C16.1669 44.8286 13.0991 47.8964 13.0991 51.6807C13.0991 55.465 16.1669 58.5328 19.9512 58.5328Z" fill="#1D1A3A"/>
<path d="M130.93 80.3048C134.714 80.3048 137.782 77.237 137.782 73.4527C137.782 69.6684 134.714 66.6006 130.93 66.6006C127.145 66.6006 124.078 69.6684 124.078 73.4527C124.078 77.237 127.145 80.3048 130.93 80.3048Z" fill="#1D1A3A"/>
<path d="M106.262 80.3048C110.047 80.3048 113.114 77.237 113.114 73.4527C113.114 69.6684 110.047 66.6006 106.262 66.6006C102.478 66.6006 99.4102 69.6684 99.4102 73.4527C99.4102 77.237 102.478 80.3048 106.262 80.3048Z" fill="#1D1A3A"/>
<path d="M81.608 80.3048C85.3923 80.3048 88.4601 77.237 88.4601 73.4527C88.4601 69.6684 85.3923 66.6006 81.608 66.6006C77.8237 66.6006 74.7559 69.6684 74.7559 73.4527C74.7559 77.237 77.8237 80.3048 81.608 80.3048Z" fill="#1D1A3A"/>
<path d="M56.9527 80.3048C60.737 80.3048 63.8048 77.237 63.8048 73.4527C63.8048 69.6684 60.737 66.6006 56.9527 66.6006C53.1684 66.6006 50.1006 69.6684 50.1006 73.4527C50.1006 77.237 53.1684 80.3048 56.9527 80.3048Z" fill="#1D1A3A"/>
<path d="M7.63044 80.3048C11.4148 80.3048 14.4826 77.237 14.4826 73.4527C14.4826 69.6684 11.4148 66.6006 7.63044 66.6006C3.84612 66.6006 0.77832 69.6684 0.77832 73.4527C0.77832 77.237 3.84612 80.3048 7.63044 80.3048Z" fill="#1D1A3A"/>
<path d="M32.2847 80.3048C36.069 80.3048 39.1368 77.237 39.1368 73.4527C39.1368 69.6684 36.069 66.6006 32.2847 66.6006C28.5004 66.6006 25.4326 69.6684 25.4326 73.4527C25.4326 77.237 28.5004 80.3048 32.2847 80.3048Z" fill="#1D1A3A"/>
<path d="M118.596 102.064C122.38 102.064 125.448 98.9958 125.448 95.2115C125.448 91.4272 122.38 88.3594 118.596 88.3594C114.811 88.3594 111.744 91.4272 111.744 95.2115C111.744 98.9958 114.811 102.064 118.596 102.064Z" fill="#1D1A3A"/>
<path d="M93.941 102.064C97.7253 102.064 100.793 98.9958 100.793 95.2115C100.793 91.4272 97.7253 88.3594 93.941 88.3594C90.1567 88.3594 87.0889 91.4272 87.0889 95.2115C87.0889 98.9958 90.1567 102.064 93.941 102.064Z" fill="#1D1A3A"/>
<path d="M69.273 102.064C73.0573 102.064 76.1251 98.9958 76.1251 95.2115C76.1251 91.4272 73.0573 88.3594 69.273 88.3594C65.4887 88.3594 62.4209 91.4272 62.4209 95.2115C62.4209 98.9958 65.4887 102.064 69.273 102.064Z" fill="#1D1A3A"/>
<path d="M44.6187 102.064C48.403 102.064 51.4708 98.9958 51.4708 95.2115C51.4708 91.4272 48.403 88.3594 44.6187 88.3594C40.8344 88.3594 37.7666 91.4272 37.7666 95.2115C37.7666 98.9958 40.8344 102.064 44.6187 102.064Z" fill="#1D1A3A"/>
<path d="M19.9512 102.064C23.7356 102.064 26.8034 98.9958 26.8034 95.2115C26.8034 91.4272 23.7356 88.3594 19.9512 88.3594C16.1669 88.3594 13.0991 91.4272 13.0991 95.2115C13.0991 98.9958 16.1669 102.064 19.9512 102.064Z" fill="#1D1A3A"/>
<path d="M130.93 123.835C134.714 123.835 137.782 120.767 137.782 116.983C137.782 113.199 134.714 110.131 130.93 110.131C127.145 110.131 124.078 113.199 124.078 116.983C124.078 120.767 127.145 123.835 130.93 123.835Z" fill="#1D1A3A"/>
<path d="M106.262 123.835C110.047 123.835 113.114 120.767 113.114 116.983C113.114 113.199 110.047 110.131 106.262 110.131C102.478 110.131 99.4102 113.199 99.4102 116.983C99.4102 120.767 102.478 123.835 106.262 123.835Z" fill="#1D1A3A"/>
<path d="M81.608 123.835C85.3923 123.835 88.4601 120.767 88.4601 116.983C88.4601 113.199 85.3923 110.131 81.608 110.131C77.8237 110.131 74.7559 113.199 74.7559 116.983C74.7559 120.767 77.8237 123.835 81.608 123.835Z" fill="#1D1A3A"/>
<path d="M56.9527 123.835C60.737 123.835 63.8048 120.767 63.8048 116.983C63.8048 113.199 60.737 110.131 56.9527 110.131C53.1684 110.131 50.1006 113.199 50.1006 116.983C50.1006 120.767 53.1684 123.835 56.9527 123.835Z" fill="#1D1A3A"/>
<path d="M7.63044 123.835C11.4148 123.835 14.4826 120.767 14.4826 116.983C14.4826 113.199 11.4148 110.131 7.63044 110.131C3.84612 110.131 0.77832 113.199 0.77832 116.983C0.77832 120.767 3.84612 123.835 7.63044 123.835Z" fill="#1D1A3A"/>
<path d="M32.2847 123.835C36.069 123.835 39.1368 120.767 39.1368 116.983C39.1368 113.199 36.069 110.131 32.2847 110.131C28.5004 110.131 25.4326 113.199 25.4326 116.983C25.4326 120.767 28.5004 123.835 32.2847 123.835Z" fill="#1D1A3A"/>
<path d="M137.782 33.8914C126.366 33.8914 126.366 23.5615 114.95 23.5615C103.534 23.5615 103.534 33.8914 92.1181 33.8914C80.7022 33.8914 80.7022 23.5615 69.2863 23.5615C57.8704 23.5615 57.8704 33.8914 46.4545 33.8914C35.0387 33.8914 35.0387 23.5615 23.6228 23.5615C12.2069 23.5615 12.2069 33.8914 0.791016 33.8914" stroke="#49529D" stroke-width="5" stroke-miterlimit="10"/>
<path d="M137.782 13.2059C126.366 13.2059 126.366 2.87598 114.95 2.87598C103.534 2.87598 103.534 13.2059 92.1181 13.2059C80.7022 13.2059 80.7022 2.87598 69.2863 2.87598C57.8704 2.87598 57.8704 13.2059 46.4545 13.2059C35.0387 13.2059 35.0387 2.87598 23.6228 2.87598C12.2069 2.87598 12.2069 13.2059 0.791016 13.2059" stroke="#49529D" stroke-width="5" stroke-miterlimit="10"/>
</svg>
