<svg width="76" height="74" viewBox="0 0 76 74" fill="none" xmlns="http://www.w3.org/2000/svg">
<path d="M6.07354 73.4221H69.9265L72.0537 62.9702H3.94629L6.07354 73.4221Z" fill="#212121"/>
<path d="M75.592 26.1685H0.400879V36.6203H75.592V26.1685Z" fill="#212121"/>
<path d="M9.27881 7.47702L35.5858 33.784C37.6279 35.8262 40.9323 35.8262 42.9744 33.784C45.0166 31.7418 45.0166 28.4375 42.9744 26.3953L16.6674 0.0883789L9.27881 7.47702Z" fill="#212121"/>
<path d="M21.8079 40.5132H3.44971V58.8713H21.8079V40.5132Z" fill="#E0342A"/>
<path fill-rule="evenodd" clip-rule="evenodd" d="M37.9965 40.5132L27.4028 58.8713H48.5973L37.9965 40.5132Z" fill="#FFCF1A"/>
<path d="M62.0203 59.7155C67.5617 59.7155 72.0539 55.2233 72.0539 49.682C72.0539 44.1406 67.5617 39.6484 62.0203 39.6484C56.479 39.6484 51.9868 44.1406 51.9868 49.682C51.9868 55.2233 56.479 59.7155 62.0203 59.7155Z" fill="#2C52FF"/>
</svg>
