<svg width="138" height="138" viewBox="0 0 138 138" fill="none" xmlns="http://www.w3.org/2000/svg">
<path d="M137.556 0.444336H0.6875V137.313H137.556V0.444336Z" fill="#BB6EAA"/>
<path d="M114.749 46.0717C127.345 46.0717 137.556 35.8606 137.556 23.2646C137.556 10.6686 127.345 0.45752 114.749 0.45752C102.153 0.45752 91.9414 10.6686 91.9414 23.2646C91.9414 35.8606 102.153 46.0717 114.749 46.0717Z" fill="#5EB697"/>
<path d="M114.749 91.6982C127.345 91.6982 137.556 81.4871 137.556 68.8911C137.556 56.2951 127.345 46.084 114.749 46.084C102.153 46.084 91.9414 56.2951 91.9414 68.8911C91.9414 81.4871 102.153 91.6982 114.749 91.6982Z" fill="#AB368B"/>
<path d="M69.121 46.0717C81.717 46.0717 91.9281 35.8606 91.9281 23.2646C91.9281 10.6686 81.717 0.45752 69.121 0.45752C56.525 0.45752 46.314 10.6686 46.314 23.2646C46.314 35.8606 56.525 46.0717 69.121 46.0717Z" fill="#5EB697"/>
<path d="M69.121 91.6982C81.717 91.6982 91.9281 81.4871 91.9281 68.8911C91.9281 56.2951 81.717 46.084 69.121 46.084C56.525 46.084 46.314 56.2951 46.314 68.8911C46.314 81.4871 56.525 91.6982 69.121 91.6982Z" fill="#AB368B"/>
<path d="M23.4946 46.0717C36.0906 46.0717 46.3016 35.8606 46.3016 23.2646C46.3016 10.6686 36.0906 0.45752 23.4946 0.45752C10.8986 0.45752 0.6875 10.6686 0.6875 23.2646C0.6875 35.8606 10.8986 46.0717 23.4946 46.0717Z" fill="#5EB697"/>
<path d="M52.9868 85.0125C61.8928 93.9185 76.336 93.9185 85.242 85.0125L69.1079 68.8784L52.9868 85.0125Z" fill="#741F64"/>
<path d="M52.9873 52.7576L69.1214 68.8917L85.2554 52.7576C76.3365 43.8516 61.8933 43.8516 52.9873 52.7576Z" fill="#741F64"/>
<path d="M137.556 68.8911C137.556 56.2936 127.346 46.084 114.749 46.084V68.8911H137.556Z" fill="#741F64"/>
<path d="M114.749 91.6977V68.8906H91.9414C91.9285 81.4881 102.151 91.6977 114.749 91.6977Z" fill="#741F64"/>
<path d="M23.4946 91.6982C36.0906 91.6982 46.3016 81.4871 46.3016 68.8911C46.3016 56.2951 36.0906 46.084 23.4946 46.084C10.8986 46.084 0.6875 56.2951 0.6875 68.8911C0.6875 81.4871 10.8986 91.6982 23.4946 91.6982Z" fill="#AB368B"/>
<path d="M23.4946 46.0713C10.8971 46.0713 0.6875 56.2809 0.6875 68.8784H23.4946V46.0713Z" fill="#741F64"/>
<path d="M46.3017 68.8911H23.4946V91.6982C36.0921 91.6982 46.3017 81.4886 46.3017 68.8911Z" fill="#741F64"/>
<path d="M114.749 137.312C127.345 137.312 137.556 127.101 137.556 114.505C137.556 101.909 127.345 91.6982 114.749 91.6982C102.153 91.6982 91.9414 101.909 91.9414 114.505C91.9414 127.101 102.153 137.312 114.749 137.312Z" fill="#AB368B"/>
<path d="M69.121 137.312C81.717 137.312 91.9281 127.101 91.9281 114.505C91.9281 101.909 81.717 91.6982 69.121 91.6982C56.525 91.6982 46.314 101.909 46.314 114.505C46.314 127.101 56.525 137.312 69.121 137.312Z" fill="#AB368B"/>
<path d="M85.2551 130.639C94.1611 121.733 94.1611 107.29 85.2551 98.3843L69.1211 114.518L85.2551 130.639Z" fill="#741F64"/>
<path d="M52.9876 130.64L69.1216 114.506L52.9876 98.3716C44.0816 107.29 44.0816 121.734 52.9876 130.64Z" fill="#741F64"/>
<path d="M137.556 114.505C137.556 101.908 127.346 91.6982 114.749 91.6982V114.505H137.556Z" fill="#741F64"/>
<path d="M114.749 137.325V114.518H91.9414C91.9285 127.103 102.151 137.325 114.749 137.325Z" fill="#741F64"/>
<path d="M23.4946 137.312C36.0906 137.312 46.3016 127.101 46.3016 114.505C46.3016 101.909 36.0906 91.6982 23.4946 91.6982C10.8986 91.6982 0.6875 101.909 0.6875 114.505C0.6875 127.101 10.8986 137.312 23.4946 137.312Z" fill="#AB368B"/>
<path d="M23.4946 91.6982C10.8971 91.6982 0.6875 101.908 0.6875 114.505H23.4946V91.6982Z" fill="#741F64"/>
<path d="M46.3017 114.505H23.4946V137.312C36.0921 137.325 46.3017 127.103 46.3017 114.505Z" fill="#741F64"/>
<path d="M114.749 46.0717C127.345 46.0717 137.556 35.8606 137.556 23.2646C137.556 10.6686 127.345 0.45752 114.749 0.45752C102.153 0.45752 91.9414 10.6686 91.9414 23.2646C91.9414 35.8606 102.153 46.0717 114.749 46.0717Z" fill="#AB368B"/>
<path d="M69.121 46.0717C81.717 46.0717 91.9281 35.8606 91.9281 23.2646C91.9281 10.6686 81.717 0.45752 69.121 0.45752C56.525 0.45752 46.314 10.6686 46.314 23.2646C46.314 35.8606 56.525 46.0717 69.121 46.0717Z" fill="#AB368B"/>
<path d="M85.2551 39.3856C94.1611 30.4796 94.1611 16.0364 85.2551 7.13037L69.1211 23.2644L85.2551 39.3856Z" fill="#741F64"/>
<path d="M52.9876 39.3853L69.1216 23.2512L52.9876 7.11719C44.0816 16.0361 44.0816 30.4793 52.9876 39.3853Z" fill="#741F64"/>
<path d="M137.556 23.2646C137.556 10.6671 127.346 0.45752 114.749 0.45752V23.2646H137.556Z" fill="#741F64"/>
<path d="M114.749 46.0712V23.2642H91.9414C91.9285 35.8616 102.151 46.0712 114.749 46.0712Z" fill="#741F64"/>
<path d="M23.4946 46.0717C36.0906 46.0717 46.3016 35.8606 46.3016 23.2646C46.3016 10.6686 36.0906 0.45752 23.4946 0.45752C10.8986 0.45752 0.6875 10.6686 0.6875 23.2646C0.6875 35.8606 10.8986 46.0717 23.4946 46.0717Z" fill="#AB368B"/>
<path d="M23.4946 0.444336C10.8971 0.444336 0.6875 10.654 0.6875 23.2514H23.4946V0.444336Z" fill="#741F64"/>
<path d="M46.3017 23.2642H23.4946V46.0712C36.0921 46.0712 46.3017 35.8616 46.3017 23.2642Z" fill="#741F64"/>
</svg>
