<svg width="45" height="58" viewBox="0 0 45 58" fill="none" xmlns="http://www.w3.org/2000/svg">
<path d="M44.5684 0.946289H0.643311V45.0599L12.7528 57.1642H44.5684V0.946289Z" fill="#D9D9D9"/>
<path d="M8.64575 9.31407V13.6699L36.5714 13.6699V9.31407L8.64575 9.31407Z" fill="#3C3C3B"/>
<path d="M8.64453 17.2628V21.6187H36.5702V17.2628H8.64453Z" fill="#3C3C3B"/>
<path d="M8.64648 25.2096V29.5654H22.6093V25.2096H8.64648Z" fill="#3C3C3B"/>
<path d="M30.9877 46.0651C34.0845 46.0651 36.5949 43.5547 36.5949 40.458C36.5949 37.3612 34.0845 34.8508 30.9877 34.8508C27.891 34.8508 25.3806 37.3612 25.3806 40.458C25.3806 43.5547 27.891 46.0651 30.9877 46.0651Z" fill="#3C3C3B"/>
<path d="M30.9878 42.3427C32.0287 42.3427 32.8725 41.4989 32.8725 40.458C32.8725 39.4171 32.0287 38.5732 30.9878 38.5732C29.9469 38.5732 29.103 39.4171 29.103 40.458C29.103 41.4989 29.9469 42.3427 30.9878 42.3427Z" fill="#D9D9D9"/>
<path d="M30.9878 42.751L26.2026 51.0334H35.7677L30.9878 42.751Z" fill="#3C3C3B"/>
<path d="M12.7738 45.0388H0.643311L12.7738 57.164V45.0388Z" fill="#3C3C3B"/>
</svg>
