<svg width="57" height="56" viewBox="0 0 57 56" fill="none" xmlns="http://www.w3.org/2000/svg">
<path d="M56.6468 20.7078H0.570312L4.80053 55.9473H52.4166L56.6468 20.7078Z" fill="#3C3C3B"/>
<path d="M6.15649 7.80256L31.7577 33.4037C33.59 35.2361 36.5533 35.2361 38.3857 33.4037L39.3385 32.4509C41.1709 30.6185 41.1709 27.6552 39.3385 25.8228L13.7374 0.22168L6.15649 7.80256Z" fill="#3C3C3B"/>
<path d="M31.1294 35.88C30.4435 35.2204 29.543 34.7858 28.5431 34.7858C27.6164 34.7858 26.9725 35.1733 26.9725 35.8015C26.9725 36.4455 27.4384 36.7125 28.3336 36.8957L29.9514 37.2098C31.8047 37.5815 32.9565 38.3145 32.9565 40.0684C32.9565 41.8641 31.5796 42.974 29.6634 43.2253V44.5865H27.674V43.1939C25.9568 42.8798 24.7736 41.906 24.2605 41.2045L25.805 39.8747C26.4175 40.6966 27.4489 41.4296 28.8258 41.4296C29.9776 41.4296 30.6477 40.9793 30.6477 40.2464C30.6477 39.5605 30.0666 39.3616 29.1504 39.1993L27.8625 38.9585C26.0353 38.6024 24.6584 37.9428 24.6584 35.9952C24.6584 34.4717 25.8887 33.3147 27.6688 33.032V31.7598H29.6582V33.0634C30.8676 33.2728 31.8571 33.8278 32.5325 34.5293L31.1294 35.88Z" fill="#D9D9D9"/>
<path d="M38.9406 38.0632C38.8726 35.3146 37.726 32.8278 35.9145 31.0163C34.0455 29.1473 31.4592 27.985 28.6007 27.985C25.7474 27.985 23.1611 29.142 21.2868 31.0163C20.9256 31.3775 20.5905 31.7702 20.2816 32.1786L18.423 29.1944C18.5853 29.0111 18.7581 28.8331 18.9309 28.6604C21.402 26.1893 24.8207 24.6553 28.5954 24.6553C32.3702 24.6553 35.7889 26.184 38.26 28.6604C40.6735 31.0739 42.1918 34.3931 42.2599 38.0632H45.8618L40.6002 46.5131L40.3751 46.1519L35.3386 38.0632H38.9406ZM16.8367 30.5085L21.8732 38.5972H18.266C18.334 41.3458 19.4806 43.8274 21.292 45.644C23.1611 47.5131 25.7474 48.6753 28.6059 48.6753C31.4592 48.6753 34.0455 47.5183 35.9198 45.644C36.2863 45.2776 36.6213 44.8849 36.9302 44.4713L38.7888 47.4555C38.6213 47.6387 38.4485 47.822 38.2757 48C35.8046 50.4711 32.3859 52.0051 28.6111 52.0051C24.8364 52.0051 21.4177 50.4763 18.9466 48C16.533 45.5864 15.0148 42.2672 14.9467 38.6024H11.3552L16.6168 30.1525L16.8367 30.5085Z" fill="#D9D9D9"/>
</svg>
