<svg width="57" height="55" viewBox="0 0 57 55" fill="none" xmlns="http://www.w3.org/2000/svg">
<path d="M8.01491 47.2241C12.2133 47.2241 15.6167 43.8207 15.6167 39.6223C15.6167 35.424 12.2133 32.0205 8.01491 32.0205C3.81655 32.0205 0.413086 35.424 0.413086 39.6223C0.413086 43.8207 3.81655 47.2241 8.01491 47.2241Z" fill="#D9D9D9"/>
<path d="M15.6218 54.8313C15.6218 50.6325 12.2188 47.2295 8.02001 47.2295C3.82121 47.2295 0.418213 50.6325 0.418213 54.8313H15.6218Z" fill="#D9D9D9"/>
<path d="M28.6057 28.7171C36.3519 28.7171 42.6314 22.4376 42.6314 14.6914C42.6314 6.94528 36.3519 0.665771 28.6057 0.665771C20.8596 0.665771 14.5801 6.94528 14.5801 14.6914C14.5801 22.4376 20.8596 28.7171 28.6057 28.7171Z" fill="#3C3C3B"/>
<path d="M28.6059 24.5287C34.0389 24.5287 38.4432 20.1244 38.4432 14.6913C38.4432 9.25833 34.0389 4.854 28.6059 4.854C23.1729 4.854 18.7686 9.25833 18.7686 14.6913C18.7686 20.1244 23.1729 24.5287 28.6059 24.5287Z" fill="white"/>
<path d="M49.1968 47.2241C53.3952 47.2241 56.7986 43.8207 56.7986 39.6223C56.7986 35.424 53.3952 32.0205 49.1968 32.0205C44.9984 32.0205 41.595 35.424 41.595 39.6223C41.595 43.8207 44.9984 47.2241 49.1968 47.2241Z" fill="#D9D9D9"/>
<path d="M56.7986 54.8313C56.7986 50.6325 53.3956 47.2295 49.1968 47.2295C44.998 47.2295 41.595 50.6325 41.595 54.8313H56.7986Z" fill="#D9D9D9"/>
<path d="M29.6738 37.3815V33.7795L38.1238 39.0411L37.7625 39.2663L29.6738 44.3027V40.706V37.3815Z" fill="#3C3C3B"/>
<path d="M30.1504 36.769H21.1821V41.3134H30.1504V36.769Z" fill="#3C3C3B"/>
<path d="M36.0298 47.2974H27.0615V51.8417H36.0298V47.2974Z" fill="#3C3C3B"/>
<path d="M35.6364 4.15852L18.0669 21.728L21.5727 25.2338L39.1422 7.66428L35.6364 4.15852Z" fill="#3C3C3B"/>
<path d="M27.5379 51.2293V54.8313L19.0879 49.5697L19.4491 49.3446L27.5379 44.3081V47.9048V51.2293Z" fill="#3C3C3B"/>
</svg>
