<svg width="57" height="57" viewBox="0 0 57 57" fill="none" xmlns="http://www.w3.org/2000/svg">
<path d="M56.6468 8.01489H0.570312V53.8771H56.6468V8.01489Z" fill="#D9D9D9"/>
<path d="M56.6468 6.04126H0.570312V15.0566H56.6468V6.04126Z" fill="#3C3C3B"/>
<path d="M45.4478 0.510835V10.5471H50.0916V0.510835H45.4478Z" fill="#D9D9D9"/>
<path d="M8.25317 0.513762V10.55H12.897V0.513762H8.25317Z" fill="#D9D9D9"/>
<path d="M4.99756 19.2881V26.4763H12.1858V19.2881H4.99756Z" fill="#3C3C3B"/>
<path d="M18.3052 19.2874V26.4756H25.4934V19.2874H18.3052Z" fill="#3C3C3B"/>
<path d="M31.6128 19.2918V26.48H38.801V19.2918H31.6128Z" fill="#3C3C3B"/>
<path d="M44.9204 19.291V26.4792H52.1086V19.291H44.9204Z" fill="#3C3C3B"/>
<path d="M4.99951 30.7097V37.8979H12.1877V30.7097H4.99951Z" fill="#3C3C3B"/>
<path d="M18.3071 30.709V37.8972H25.4953V30.709H18.3071Z" fill="#3C3C3B"/>
<path d="M4.99634 42.1314V49.3196H12.1846V42.1314H4.99634Z" fill="#3C3C3B"/>
<path d="M18.304 42.1306V49.3188H25.4922V42.1306H18.304Z" fill="#3C3C3B"/>
<path d="M42.9091 56.6468C50.4962 56.6468 56.6468 50.4962 56.6468 42.9091C56.6468 35.322 50.4962 29.1714 42.9091 29.1714C35.322 29.1714 29.1714 35.322 29.1714 42.9091C29.1714 50.4962 35.322 56.6468 42.9091 56.6468Z" fill="#3C3C3B"/>
<path d="M42.9091 52.8511C48.3999 52.8511 52.8511 48.3999 52.8511 42.9091C52.8511 37.4182 48.3999 32.967 42.9091 32.967C37.4182 32.967 32.967 37.4182 32.967 42.9091C32.967 48.3999 37.4182 52.8511 42.9091 52.8511Z" fill="#D9D9D9"/>
<path d="M45.4326 40.6107C44.7467 39.9511 43.8463 39.5165 42.8463 39.5165C41.9196 39.5165 41.2757 39.904 41.2757 40.5322C41.2757 41.1762 41.7416 41.4432 42.6369 41.6264L44.2546 41.9405C46.1079 42.3123 47.2597 43.0452 47.2597 44.7991C47.2597 46.5948 45.8828 47.7047 43.9667 47.956V49.3172H41.9772V47.9246C40.26 47.6105 39.0768 46.6367 38.5637 45.9352L40.1082 44.6054C40.7207 45.4273 41.7521 46.1603 43.129 46.1603C44.2808 46.1603 44.9509 45.71 44.9509 44.9771C44.9509 44.2912 44.3698 44.0923 43.4536 43.93L42.1657 43.6892C40.3385 43.3332 38.9616 42.6735 38.9616 40.7259C38.9616 39.2024 40.1919 38.0454 41.972 37.7627V36.4905H43.9614V37.7941C45.1708 38.0035 46.1603 38.5585 46.8357 39.26L45.4326 40.6107Z" fill="#3C3C3B"/>
</svg>
