<svg width="54" height="54" viewBox="0 0 54 54" fill="none" xmlns="http://www.w3.org/2000/svg">
<rect width="32.2995" height="22.7593" transform="matrix(0.887022 -0.461728 0.576029 0.817429 0.0979004 15.4457)" fill="#9C9B9B"/>
<rect width="32.2995" height="22.7593" transform="matrix(0.887022 -0.461728 0.576029 0.817429 6.26782 15.8284)" fill="#C6C6C5"/>
<path d="M11.2041 16.1359L39.8545 1.22228L50.6779 16.4577L50.6779 19.5906L24.3141 34.74L11.2041 16.1359Z" fill="#ECECEC"/>
<path d="M39.1 4.74058C38.7609 4.65917 38.3948 4.68552 38.0768 4.86377C37.7822 5.02896 37.6486 5.26337 37.7639 5.45735C37.8821 5.65617 38.0793 5.65555 38.3976 5.55254L38.9696 5.36115C39.6271 5.14554 40.1279 5.16653 40.4498 5.70804C40.7795 6.26249 40.5454 6.85063 39.9823 7.26979L40.2322 7.69007L39.5996 8.04471L39.344 7.61473C38.7403 7.82385 38.1854 7.73411 37.8934 7.60897L38.1404 6.92307C38.486 7.06766 38.9485 7.11012 39.3863 6.86467C39.7525 6.65935 39.883 6.40088 39.7484 6.17457C39.6225 5.96281 39.4012 6.00498 39.0801 6.11819L38.6264 6.27342C37.9801 6.48921 37.4212 6.53098 37.0637 5.92966C36.784 5.45927 36.9628 4.88271 37.4769 4.47812L37.2433 4.08532L37.8759 3.73068L38.1152 4.13317C38.5382 3.98225 38.9547 3.97721 39.2982 4.07342L39.1 4.74058Z" fill="#9C9B9B"/>
<path d="M0.0978986 12.541L0.0979004 53.7903L40.6602 53.7903L51.79 53.7878L51.79 42.4185L51.79 12.541L0.0978986 12.541Z" fill="#3C3C3B"/>
<path d="M28.8157 28.7277L28.8157 36.5598L48.0725 36.5598L53.3564 36.5593L53.3564 34.4006L53.3564 28.7277L28.8157 28.7277Z" fill="#D9D9D9"/>
<path d="M34.2984 34.9934C35.5961 34.9934 36.648 33.9414 36.648 32.6437C36.648 31.346 35.5961 30.2941 34.2984 30.2941C33.0007 30.2941 31.9487 31.346 31.9487 32.6437C31.9487 33.9414 33.0007 34.9934 34.2984 34.9934Z" fill="#3C3C3B"/>
</svg>
